<?xml version="1.0" encoding="UTF-8" standalone="no"?>
<svg
   version="1.0"
   width="426.47632pt"
   height="290pt"
   viewBox="0 0 426.47632 290"
   preserveAspectRatio="xMidYMid"
   id="svg3"
   sodipodi:docname="favicon.svg"
   inkscape:version="1.4.3 (0d15f75, 2025-12-25)"
   xmlns:inkscape="http://www.inkscape.org/namespaces/inkscape"
   xmlns:sodipodi="http://sodipodi.sourceforge.net/DTD/sodipodi-0.dtd"
   xmlns="http://www.w3.org/2000/svg"
   xmlns:svg="http://www.w3.org/2000/svg">
  <defs
     id="defs3" />
  <sodipodi:namedview
     id="namedview3"
     pagecolor="#ffffff"
     bordercolor="#666666"
     borderopacity="1.0"
     inkscape:showpageshadow="2"
     inkscape:pageopacity="0.0"
     inkscape:pagecheckerboard="0"
     inkscape:deskcolor="#d1d1d1"
     inkscape:document-units="pt"
     inkscape:zoom="3.6594828"
     inkscape:cx="284.46643"
     inkscape:cy="193.33333"
     inkscape:window-width="3008"
     inkscape:window-height="1634"
     inkscape:window-x="1728"
     inkscape:window-y="30"
     inkscape:window-maximized="0"
     inkscape:current-layer="svg3" />
  <g
     transform="matrix(0.1,0,0,-0.1,-491.34802,529)"
     fill="#000000"
     stroke="none"
     id="g3">
    <path
       d="m 4918,5283 c 7,-3 16,-2 19,1 4,3 -2,6 -13,5 -11,0 -14,-3 -6,-6 z"
       id="path1" />
    <path
       d="m 4999,5266 c -75,-51 -69,79 -69,-1421 0,-1485 -5,-1377 63,-1429 l 34,-26 h 2018 2018 l 44,45 43,45 v 1356 c 0,1503 5,1385 -66,1432 l -34,22 H 7042 5035 Z m 3706,-268 c -44,-53 -185,-180 -243,-220 -72,-49 -207,-108 -310,-134 -72,-18 -154,-28 -321,-40 -310,-20 -414,-43 -582,-130 -47,-24 -115,-68 -151,-98 l -66,-55 -28,31 c -41,42 -150,113 -236,153 -137,63 -256,84 -589,105 -230,14 -376,55 -536,152 -61,37 -242,195 -281,246 l -25,32 H 7039 8742 Z M 5727,4280 c 207,-223 475,-512 595,-642 270,-291 333,-351 429,-405 163,-92 334,-106 497,-40 141,57 223,132 658,607 267,291 584,632 853,918 120,127 126,132 131,106 7,-38 3,-2014 -4,-2021 -3,-3 -72,59 -154,138 -217,212 -782,743 -794,748 -10,3 -158,-137 -158,-149 0,-4 143,-143 318,-310 174,-167 383,-368 464,-447 l 147,-143 H 7044 c -1584,0 -1664,1 -1652,18 7,9 65,67 128,127 63,61 180,174 260,251 80,77 208,200 285,274 77,73 162,155 190,182 l 50,48 -65,66 c -96,97 -90,96 -168,22 -37,-35 -193,-182 -347,-328 -154,-145 -336,-320 -405,-387 -69,-68 -128,-123 -131,-123 -3,0 -4,204 -2,453 1,248 2,713 3,1032 l 1,580 81,-85 c 44,-47 249,-267 455,-490 z m 702,71 c 93,-32 169,-73 234,-125 54,-44 147,-149 147,-166 0,-11 -107,-57 -160,-69 -153,-35 -345,22 -461,138 -60,60 -148,219 -134,241 6,9 46,11 159,8 120,-4 164,-10 215,-27 z m 1601,17 c 0,-6 -19,-50 -41,-97 -29,-60 -59,-103 -100,-143 -117,-117 -304,-173 -459,-137 -64,14 -160,59 -160,74 0,24 140,163 205,204 130,82 231,109 423,110 95,1 132,-2 132,-11 z m -828,-542 c 98,-53 177,-77 272,-85 l 70,-6 -100,-110 c -114,-126 -209,-197 -302,-225 -80,-25 -127,-25 -200,-1 -105,36 -154,70 -279,199 -68,69 -123,129 -123,133 0,3 33,9 73,12 84,7 161,31 271,88 135,69 182,68 318,-5 z"
       id="path2" />
    <path
       d="m 9158,2393 c 7,-3 16,-2 19,1 4,3 -2,6 -13,5 -11,0 -14,-3 -6,-6 z"
       id="path3" />
  </g>
</svg>
