<?xml version="1.0" encoding="UTF-8" standalone="no"?>
<!-- Created with Inkscape (http://www.inkscape.org/) -->

<svg
   version="1.1"
   id="svg1"
   width="729.33331"
   height="134.66666"
   viewBox="0 0 729.33331 134.66666"
   xml:space="preserve"
   xmlns="http://www.w3.org/2000/svg"
   xmlns:svg="http://www.w3.org/2000/svg"><defs
     id="defs1" /><g
     id="g1"
     transform="translate(-128.8067,-330.57587)"><path
       d="m 131.2067,332.04253 c -2.26667,1.2 -2.4,5.86667 -2.4,65.6 0,48.26667 0.4,64.8 1.6,66 1.2,1.2 24.4,1.6 95.86666,1.6 84,0 94.53333,-0.26667 96.4,-2.13333 1.86667,-1.86667 2.13333,-9.6 2.13333,-65.2 0,-55.6 -0.26666,-63.33333 -2.13333,-65.2 -1.86667,-1.86667 -12.26667,-2.13333 -95.6,-2.13333 -61.06666,0.13333 -94.39999,0.53333 -95.86666,1.46666 z m 174.93333,10.4 c 0,0.66667 -2.8,3.73334 -6.13334,6.66667 -8.66666,7.6 -18.26666,10.8 -36.53333,12.13333 -16.93333,1.2 -24.93333,3.6 -32,9.2 l -4.8,3.86667 -3.2,-2.8 c -7.6,-6.13333 -16.8,-9.06667 -32.93333,-10.26667 -22.4,-1.73333 -30,-4.53333 -39.73333,-14.53333 l -5.2,-5.46667 h 80.26666 c 47.6,0 80.26667,0.53334 80.26667,1.2 z m -141.46667,34.13334 c 30.26667,32.93333 42.8,45.86666 46.93334,48 12.66666,6.66666 25.73333,4.93333 36,-4.93334 3.33333,-3.2 19.46666,-20.26666 35.86666,-38.13333 16.4,-17.73333 30.26667,-32.26667 30.8,-32.26667 0.53333,0 0.93333,22.13334 0.93333,49.33334 0,27.06666 -0.26666,49.33333 -0.53333,49.33333 -0.26667,0 -10.4,-10 -22.4,-22.4 l -22,-22.26667 -3.73333,3.73334 -3.73333,3.6 21.99999,22 22,21.99999 h -80.66666 -80.66667 l 21.73334,-21.73333 c 11.86666,-11.86666 21.6,-22.13333 21.6,-22.8 0,-0.53333 -1.33334,-2.13333 -2.93334,-3.46666 l -3.06666,-2.53334 -22.26667,22.26667 -22.4,22.26666 V 398.7092 c 0,-46.4 0.13334,-49.6 2.26667,-48 1.2,1.06667 12.13333,12.66667 24.26666,25.86667 z m 36.8,-2.8 c 6.13334,2.8 14,10 14,12.8 0,1.86666 -12.93333,4.26666 -17.6,3.33333 -6.8,-1.46667 -14.13333,-6.8 -17.06666,-12.66667 -1.46667,-2.8 -2.66667,-5.6 -2.66667,-6 0,-0.4 3.73333,-0.66666 8.4,-0.66666 5.86667,0 10.26667,0.93333 14.93333,3.2 z m 72.66667,-1.86667 c 0,2.93333 -4,9.06667 -7.86667,12.4 -7.6,6.26667 -18.93333,7.73333 -27.06666,3.46667 -2.53334,-1.33334 -2.4,-1.73334 2.4,-6.8 7.06666,-7.33334 14,-10.4 24.26666,-10.4 4.93334,0 8.26667,0.53333 8.26667,1.33333 z m -37.86667,25.73333 c 2.13334,1.06667 6.53334,2.4 9.73334,2.93334 l 5.73333,0.93333 -6.4,6.66667 c -8.66667,8.93333 -16.13333,12.26666 -22.93333,10.4 -5.2,-1.33334 -16.53334,-10.13334 -18.93334,-14.66667 -1.2,-2.13333 -0.53333,-2.66667 5.06667,-3.86667 3.46667,-0.66666 8.53333,-2.53333 11.33333,-4 5.33334,-2.66666 8.53334,-2.4 16.4,1.6 z"
       id="path10"
       style="fill:#000000;stroke:none;stroke-width:0.133333" /><path
       d="m 391.74003,368.17587 c -1.86667,2.4 -26.93334,58.53333 -26.93334,60.53333 0,0.26667 2.93334,0.53333 6.66667,0.53333 7.2,0 9.46667,-2 11.33333,-9.73333 l 0.93334,-3.6 h 14.93333 14.93333 l 2.8,6.66667 2.8,6.66666 h 7.46667 c 4.13333,0 7.46666,-0.26666 7.46666,-0.66666 0,-0.26667 -5.46666,-12.26667 -12,-26.66667 -6.66666,-14.4 -12.93333,-28.26667 -13.99999,-30.66667 -1.73334,-4.4 -2.26667,-4.66666 -8.4,-4.66666 -3.73334,0 -7.2,0.8 -8,1.6 z m 12.53333,25.6 c 2.26667,5.46666 3.86667,10.26666 3.46667,10.66666 -1.2,1.33334 -16,0.93334 -16.93334,-0.4 -0.4,-0.66666 0.53334,-4.4 2.13334,-8.4 1.6,-3.86666 3.33333,-8.53333 4,-10.26666 1.6,-4 2.13333,-3.46667 7.33333,8.4 z"
       id="path11"
       style="fill:#000000;stroke:none;stroke-width:0.133333" /><path
       d="m 440.80669,397.77587 v 31.46666 h 22.66667 22.66666 v -6 -5.86666 l -15.6,-0.4 -15.73333,-0.4 -0.26667,-24.66667 -0.26666,-24.66667 -6.66667,-0.4 -6.8,-0.4 z"
       id="path12"
       style="fill:#000000;stroke:none;stroke-width:0.133333" /><path
       d="m 494.14002,398.17587 v 31.2 l 6.93334,-0.4 6.8,-0.4 -0.13334,-30.66667 -0.26666,-30.66667 -6.66667,-0.13333 -6.66667,-0.13333 z"
       id="path13"
       style="fill:#000000;stroke:none;stroke-width:0.133333" /><path
       d="m 538.94002,373.77587 c -16.13333,35.86666 -23.46666,52.8 -23.46666,54 0,0.93333 2.66666,1.46666 6.8,1.46666 h 6.66666 l 2.8,-6.66666 2.8,-6.66667 h 14.4 14.53333 l 2.93334,6.26667 c 3.06666,6.26666 3.2,6.4 10.13333,6.8 5.06667,0.26666 6.93333,0 6.93333,-1.33334 0,-2 -24.93333,-57.2 -26.4,-58.53333 -0.53333,-0.53333 -4.13333,-1.2 -8,-1.46667 l -7.06666,-0.66666 z m 15.73333,19.86666 c 1.86667,4.93334 3.46667,9.6 3.46667,10.26667 0,1.46667 -13.06667,1.86667 -16.4,0.53333 -1.86666,-0.66666 -1.73333,-1.6 0.66667,-6.93333 1.46666,-3.46667 3.46666,-8.26667 4.53333,-10.8 2.26667,-5.6 3.06667,-4.8 7.73333,6.93333 z"
       id="path14"
       style="fill:#000000;stroke:none;stroke-width:0.133333" /><path
       d="m 600.00669,368.97587 c -7.86667,3.73333 -11.2,8.53333 -11.2,16.53333 0,9.06667 4.26666,13.2 17.46666,17.06667 15.73334,4.53333 17.2,5.33333 17.2,8.66666 0,1.6 -0.93333,3.73334 -2,4.66667 -3.2,2.66667 -15.6,1.86667 -22.8,-1.2 -3.46666,-1.6 -6.4,-2.66667 -6.53333,-2.53333 -0.13333,0.26666 -1.33333,2.4 -2.53333,4.8 -2.93334,5.73333 -1.46667,7.6 7.6,10.26666 9.33333,2.8 22.93333,2.53334 29.6,-0.53333 7.33333,-3.33333 10.13333,-6.93333 10.93333,-13.86667 1.33333,-11.33333 -4.93333,-17.06666 -22.93333,-20.8 -12,-2.53333 -15.46667,-6.53333 -9.86667,-11.46666 3.33333,-3.06667 14.4,-3.2 21.6,-0.13334 5.2,2.13334 5.73333,1.86667 7.6,-4.53333 1.06667,-3.6 0.8,-4.26667 -3.06667,-6.26667 -6.66666,-3.46666 -24.26666,-3.86666 -31.06666,-0.66666 z"
       id="path15"
       style="fill:#000000;stroke:none;stroke-width:0.133333" /><path
       d="m 648.14002,368.3092 c -0.4,0.93333 -0.53333,14.8 -0.4,30.93333 l 0.4,29.33334 h 6.66667 6.66666 l 0.66667,-16.93334 0.66667,-16.93333 8.13333,13.6 c 7.06666,11.73333 8.8,13.6 12.13333,14 3.6,0.4 4.26667,-0.53333 12.4,-14.66667 l 8.66667,-15.06666 0.4,18.13333 0.4,18 5.6,-0.26667 c 3.06666,-0.26666 6,-0.4 6.66666,-0.4 0.53334,-0.13333 0.93334,-13.6 0.93334,-30.13333 v -30 h -6.4 -6.26667 l -10.53333,18 c -5.73334,9.86667 -10.93334,18 -11.33334,18 -0.53333,0 -4.4,-5.86667 -8.79999,-13.06667 -14.4,-23.86666 -14.8,-24.26666 -20.8,-24.26666 -3.06667,0 -5.6,0.66666 -5.86667,1.73333 z"
       id="path16"
       style="fill:#000000;stroke:none;stroke-width:0.133333" /><path
       d="m 752.00668,368.17587 c -1.33333,2 -27.2,59.86666 -27.2,60.66666 0,0.26667 3.33334,0.4 7.46667,0.13334 l 7.46667,-0.4 2.26666,-6 2.26667,-6 14.66667,-0.4 14.8,-0.4 2.93333,6.8 2.93333,6.66666 h 7.2 c 4,0 7.33334,-0.53333 7.33334,-1.06666 0,-0.66667 -6.13334,-14.66667 -13.73334,-31.06667 l -13.6,-29.86667 -6.93333,-0.4 c -4.53333,-0.26666 -7.2,0.13334 -7.86667,1.33334 z m 12.53334,24.8 c 2.26666,5.6 4.26666,10.66666 4.26666,11.33333 0,1.33333 -17.06666,1.2 -17.86666,-0.13333 -0.66667,-1.2 7.33333,-21.6 8.53333,-21.6 0.4,0 2.66667,4.66666 5.06667,10.4 z"
       id="path17"
       style="fill:#000000;stroke:none;stroke-width:0.133333" /><path
       d="m 844.27335,376.17587 c -0.53334,5.33333 -0.66667,13.46666 -0.53334,18 0.26667,4.66666 0,8.4 -0.4,8.4 -0.4,0 -7.2,-7.86667 -15.06666,-17.33334 L 814.00668,367.9092 h -6.66666 -6.53334 l 0.26667,30.26667 0.4,30.4 6.93333,0.4 6.93333,0.4 0.4,-18.66667 0.4,-18.66667 11.6,14.26667 c 18.53334,22.8 18.8,22.93333 24.93334,22.93333 h 5.46666 V 397.9092 366.57587 h -6.53333 -6.53333 z"
       id="path18"
       style="fill:#000000;stroke:none;stroke-width:0.133333" /><path
       style="fill:#1d4555;fill-opacity:1;stroke:#bfbfbf;stroke-width:0"
       d="m 159.60633,464.10618 -28.45695,-0.75293 -0.97626,-8.66081 c -1.26843,-11.25277 -0.57872,-120.11148 0.76954,-121.45877 1.15893,-1.1581 181.11181,-2.15926 187.27232,-1.04189 2.56592,0.46539 4.24476,1.64114 4.78819,3.35331 1.07848,3.39801 1.09988,121.00151 0.0226,124.39562 -0.4478,1.41092 -1.69714,2.90413 -2.77629,3.31824 -2.82484,1.084 -126.95231,1.73864 -160.64318,0.84723 z m 126.20796,-31.05814 -22.23726,-22.26303 3.37905,-3.37906 3.37907,-3.37905 21.50774,22.23962 c 11.82925,12.2318 21.99155,21.77653 22.58286,21.21051 2.54534,-2.43643 1.85784,-98.57018 -0.70491,-98.57018 -0.50452,0 -13.75192,13.77997 -29.43866,30.62215 -35.56423,38.18376 -41.4882,43.83696 -48.89394,46.65908 -6.8567,2.6129 -14.44684,2.03032 -21.65582,-1.66217 -5.02478,-2.57373 -21.87785,-19.51226 -52.77149,-53.03909 -10.81655,-11.73849 -20.418,-21.34271 -21.33654,-21.34271 -1.37427,0 -1.67008,8.81849 -1.67008,49.78676 v 49.78676 l 22.27467,-22.24889 c 18.71733,-18.69566 22.60807,-22.0386 24.36222,-20.93211 1.14814,0.72423 2.32035,2.01524 2.60491,2.86891 0.28455,0.85367 -9.00814,11.13418 -20.65044,22.84558 -11.6423,11.7114 -21.16781,21.69091 -21.16781,22.1767 0,0.48578 36.60158,0.88325 81.33684,0.88325 h 81.33684 z m -51.05485,-15.62796 c 4.14674,-2.14436 17.02263,-13.78706 17.02263,-15.39228 0,-0.52772 -1.80949,-1.30603 -4.02109,-1.72958 -2.2116,-0.42356 -7.78754,-2.22995 -12.39097,-4.0142 l -8.36989,-3.2441 -12.35419,4.12615 c -6.79481,2.26939 -12.35419,4.75076 -12.35419,5.51417 0,1.89119 9.52527,10.97065 14.8471,14.15222 5.18892,3.10212 12.29954,3.33925 17.6206,0.58762 z m -21.64169,-28.50563 c 4.06043,-0.99706 3.43449,-4.53674 -1.58097,-8.94037 -7.49433,-6.5801 -13.914,-9.15286 -24.40145,-9.77915 -11.17742,-0.6675 -11.55506,-0.12791 -6.01943,8.60087 5.02837,7.92892 14.40751,12.64058 23.03173,11.5701 3.40246,-0.42233 7.43901,-1.07549 8.97012,-1.45145 z m 49.53757,-1.51889 c 7.54633,-3.84985 14.71362,-15.15554 10.60693,-16.73142 -3.54916,-1.36194 -13.61193,-0.72522 -19.32994,1.22311 -5.79009,1.97287 -16.99734,11.18684 -16.99734,13.97424 0,0.8359 1.80949,2.34036 4.02109,3.34323 5.21823,2.36625 15.13555,1.53941 21.69926,-1.80916 z m -29.7443,-16.66 c 7.97464,-5.63354 11.71931,-6.71252 31.09019,-8.95823 9.17064,-1.06317 19.63914,-3.04248 23.26334,-4.39847 7.22614,-2.70365 18.95689,-11.28744 18.95689,-13.8714 0,-1.27373 -5.88285,-1.80773 -26.91037,-2.44271 -38.89178,-1.17445 -133.93321,-1.00479 -133.93321,0.23908 0,0.58178 2.93708,3.83556 6.52686,7.23062 8.55723,8.09307 16.13282,10.79877 36.9657,13.20269 17.78842,2.05262 27.64557,4.99065 33.83608,10.0852 2.04148,1.68006 3.84968,3.05741 4.01823,3.06079 0.16855,0.003 2.95238,-1.86302 6.18629,-4.14757 z"
       id="path3" /><path
       style="fill:#1d4555;fill-opacity:1;stroke:#bfbfbf;stroke-width:0"
       d="m 367.5044,423.45167 c 1.06027,-2.55185 6.98672,-15.92193 13.16989,-29.71131 12.05663,-26.88804 12.07202,-26.90719 20.93328,-26.05648 4.15706,0.3991 4.21451,0.49416 16.69343,27.62265 16.47382,35.81317 15.7652,32.78486 7.67162,32.78486 h -6.61593 l -2.40063,-6.18629 -2.40063,-6.1863 H 398.76702 382.9786 l -0.78939,3.40247 c -1.66099,7.15921 -3.76827,8.97012 -10.4382,8.97012 h -6.17438 z m 40.51474,-18.38587 c 0.93994,-0.93994 -4.22288,-15.37003 -7.03424,-19.6607 -1.14278,-1.74412 -2.55265,-2.87765 -3.13302,-2.51895 -1.81533,1.12193 -7.8335,19.03549 -7.06655,21.03413 0.55015,1.43366 2.66354,1.90046 8.60408,1.90046 4.33114,0 8.21452,-0.33972 8.62973,-0.75494 z"
       id="path4" /><path
       style="fill:#1d4555;fill-opacity:1;stroke:#bfbfbf;stroke-width:0"
       d="m 441.0826,397.77856 v -30.31283 h 6.18629 6.18629 l 0.009,16.39367 c 0.005,9.01652 0.35788,20.08919 0.78454,24.60592 l 0.77574,8.21225 15.29982,0.88246 15.29982,0.88246 v 4.82445 4.82445 H 463.35325 441.0826 Z"
       id="path5" /><path
       style="fill:#1d4555;fill-opacity:1;stroke:#bfbfbf;stroke-width:0"
       d="m 494.28394,398.08787 7.7e-4,-30.62214 h 6.18629 6.18629 v 30.19342 30.19341 l -6.18706,0.42873 -6.18706,0.42873 z"
       id="path6" /><path
       style="fill:#1d4555;fill-opacity:1;stroke:#bfbfbf;stroke-width:0"
       d="m 517.25549,425.30756 c 1.21377,-3.89783 24.1594,-55.78643 25.1564,-56.88797 0.44903,-0.49611 3.79648,-0.54908 7.43877,-0.11771 l 6.62236,0.78432 6.74371,14.34618 c 8.94965,19.03897 18.91332,41.97595 18.91332,43.53963 0,0.72523 -2.48072,1.09578 -5.87697,0.87785 -5.62369,-0.36085 -6.0103,-0.63024 -8.97013,-6.2505 l -3.09314,-5.87339 -15.12202,-0.004 -15.12203,-0.004 -2.66127,6.1863 -2.66127,6.18629 h -6.1173 c -5.77589,0 -6.06893,-0.15537 -5.25043,-2.78383 z m 40.80633,-20.81842 c 0.99923,-1.61679 -5.18729,-19.03473 -7.41847,-20.88645 -2.04711,-1.69895 -3.02265,-0.40835 -7.2698,9.6177 -3.69808,8.72987 -4.01863,10.87105 -1.76371,11.78094 2.97672,1.20113 15.63668,0.807 16.45198,-0.51219 z"
       id="path7" /><path
       style="fill:#1d4555;fill-opacity:1;stroke:#bfbfbf;stroke-width:0"
       d="m 596.48854,426.15102 c -8.21831,-3.01175 -9.2649,-5.2197 -5.12388,-10.80959 1.55425,-2.09804 1.9428,-2.11246 6.41729,-0.23819 2.61957,1.09729 8.22064,2.31991 12.44682,2.71692 9.527,0.89499 14.34789,-1.49854 13.73346,-6.81855 -0.35199,-3.04759 -1.51945,-3.71246 -13.99386,-7.96941 -16.13746,-5.507 -20.41477,-9.08739 -20.41477,-17.08856 0,-6.65642 2.6591,-11.43555 8.3215,-14.956 4.04481,-2.51476 6.24263,-2.90328 16.42367,-2.90328 14.39485,0 19.31704,1.91668 18.91743,7.36639 -0.38118,5.19845 -1.49485,5.64443 -9.01936,3.61186 -11.64528,-3.1457 -22.27065,-0.33653 -22.27065,5.88797 0,3.08114 4.08761,5.46162 13.53563,7.88265 15.71599,4.02719 21.78666,9.14458 21.43092,18.06559 -0.31519,7.90404 -3.75605,12.35108 -12.03311,15.55187 -5.22163,2.01924 -22.54259,1.83628 -28.37109,-0.29967 z"
       id="path8" /><path
       style="fill:#1d4555;fill-opacity:1;stroke:#bfbfbf;stroke-width:0"
       d="m 648.28111,398.28251 c 0,-33.60526 -0.46457,-31.2328 6.116,-31.2328 2.77254,0 3.63069,0.40319 5.9303,2.78631 1.47878,1.53247 6.76447,9.30627 11.74598,17.27511 4.98151,7.96884 9.43678,15.07393 9.9006,15.78908 0.46381,0.71515 1.18082,1.29973 1.59334,1.29905 0.84541,-10e-4 5.18904,-6.83381 15.23292,-23.96102 l 6.86268,-11.7025 h 6.33628 6.33628 l -0.548,29.16336 c -0.3014,16.03985 -0.70294,29.41413 -0.89232,29.72063 -0.18938,0.30649 -2.7832,0.55726 -5.76406,0.55726 h -5.41974 l -0.48054,-5.68472 c -0.26429,-3.1266 -0.48053,-11.15117 -0.48053,-17.83238 0,-6.68121 -0.25077,-12.13754 -0.55726,-12.12518 -0.3065,0.0124 -3.73366,5.59594 -7.61591,12.40795 -3.88226,6.812 -8.01277,13.48903 -9.17891,14.83783 -4.48318,5.1854 -7.26388,3.00628 -17.2187,-13.49351 -3.61102,-5.98516 -6.78888,-11.02017 -7.06192,-11.18891 -0.57089,-0.35283 -1.45832,12.61834 -1.47038,21.49201 -0.004,3.30786 -0.21543,7.26813 -0.46873,8.8006 l -0.46055,2.78631 h -6.21841 -6.21842 z"
       id="path9" /><path
       style="fill:#1d4555;fill-opacity:1;stroke:#bfbfbf;stroke-width:0"
       d="m 725.55474,428.37304 c 0,-0.58074 7.61057,-17.83973 17.53401,-39.76299 9.38264,-20.72852 9.41603,-20.78779 11.98536,-21.2698 2.97472,-0.55806 10.5306,0.082 11.41442,0.96697 0.58354,0.58429 13.42004,28.43958 22.32587,48.44728 2.43676,5.47439 4.25173,10.41926 4.03326,10.98858 -0.30614,0.7978 -1.85947,0.98587 -6.77488,0.82027 l -6.37766,-0.21485 -2.60753,-5.94413 c -1.43414,-3.26927 -2.8624,-6.20786 -3.17391,-6.53021 -0.31151,-0.32235 -7.21242,-0.32235 -15.33535,0 l -14.76896,0.58609 -2.13988,5.69033 c -1.57687,4.19319 -2.561,5.80331 -3.74045,6.11973 -1.91107,0.5127 -12.3743,0.59956 -12.3743,0.10273 z m 43.44837,-23.53376 c 0.86774,-0.87062 -8.40559,-22.92926 -9.63934,-22.92926 -1.18377,0 -8.5465,18.56942 -8.5465,21.55498 0,0.82581 0.66783,1.51661 1.67178,1.72927 2.38581,0.50536 15.9471,0.21384 16.51406,-0.35499 z"
       id="path19" /><path
       style="fill:#1d4555;fill-opacity:1;stroke:#bfbfbf;stroke-width:0"
       d="m 802.83306,427.99562 c -0.94614,-0.59816 -1.15008,-5.0346 -1.38281,-30.08076 l -0.27298,-29.37912 h 6.33051 6.3305 l 12.26293,14.67456 c 17.56854,21.02356 16.67781,20.07044 17.53983,18.76836 0.40319,-0.60902 0.73008,-5.87827 0.72643,-11.70944 -0.004,-5.83118 0.22372,-13.44105 0.50525,-16.91082 l 0.51189,-6.30869 h 6.21345 6.21345 V 397.88486 428.72 l -4.27234,-0.003 c -2.89096,-0.002 -5.02352,-0.46083 -6.5956,-1.41945 -2.12242,-1.29419 -13.3901,-14.34642 -25.53982,-29.58473 -2.65628,-3.33154 -5.08037,-6.0768 -5.38686,-6.10058 -0.3065,-0.0238 -0.55727,6.76441 -0.55727,15.08487 0,8.32046 -0.21262,16.67939 -0.4725,18.57539 l -0.4725,3.44727 -5.28587,-0.0114 c -2.90723,-0.006 -5.78529,-0.32712 -6.39569,-0.71301 z"
       id="path20" /></g></svg>
