<?xml version="1.0" encoding="UTF-8" standalone="no"?>
<svg
   version="1.0"
   width="546.15601pt"
   height="98.939308pt"
   viewBox="0 0 546.15601 98.939308"
   preserveAspectRatio="xMidYMid"
   id="svg9"
   xml:space="preserve"
   xmlns="http://www.w3.org/2000/svg"
   xmlns:svg="http://www.w3.org/2000/svg"><defs
     id="defs9" /><path
     style="fill:#2fbabd;fill-opacity:1;stroke:#bfbfbf;stroke-width:0"
     d="m 6.2784073,98.625441 c -5.055801,-0.2225 -5.278054,-0.30216 -5.77343398,-2.0708 -0.705397,-2.51839 -0.656354,-94.9790999 0.05075,-95.68623094 0.72806398,-0.728085 109.67044668,-1.210291 128.56395668,-0.569066 7.88707,0.267683 14.76425,0.74877804 15.28263,1.06909704 1.33999,0.828115 1.41443,94.5047799 0.0763,95.8431499 -0.47654,0.47647 -3.22735,1.08136 -6.11315,1.34414 -5.12464,0.46673 -121.668113,0.52823 -132.0869307,0.0698 z M 133.25795,92.085391 c 0.22004,-0.22004 -6.50689,-7.42778 -14.94868,-16.01722 -8.44189,-8.58944 -15.66519,-16.20834 -16.05192,-16.93096 -0.54118,-1.01118 -0.41096,-1.67467 0.56561,-2.88071 1.11385,-1.37551 1.48355,-1.46907 3.02653,-0.76606 0.96669,0.44047 8.62557,7.56005 17.01965,15.82117 l 15.26206,15.02036 0.45894,-2.44664 c 0.54934,-2.92812 0.11174,-70.754496 -0.46011,-71.326409 -0.50606,-0.506018 -7.77829,7.006481 -28.24331,29.176458 -25.299918,27.407621 -27.020718,28.815091 -35.943188,29.397971 -6.98684,0.45631 -10.7854,-0.98344 -16.37346,-6.20624 C 55.114192,62.631781 42.867332,49.809662 30.354842,36.433503 17.561825,22.757414 7.3478683,12.370257 7.0175993,12.700519 c -0.323029,0.323023 -0.508175,16.768909 -0.411442,36.546419 0.136974,28.004863 0.361606,35.959113 1.015517,35.959113 0.461802,0 8.0658357,-7.01536 16.8978437,-15.58962 l 16.058214,-15.589551 1.64284,1.909941 c 0.90351,1.05047 1.55217,2.16488 1.44137,2.47653 -0.11082,0.31173 -7.38437,7.99581 -16.16346,17.07586 l -15.961834,16.50907 12.22611,0.41429 c 15.006944,0.50848 108.940232,0.22779 109.495192,-0.32718 z m -53.798428,-28.9026 c 1.8679,-1.08527 5.3489,-3.96069 7.7356,-6.38992 4.68601,-4.769294 5.10518,-6.567127 1.53126,-6.567127 -1.09066,0 -4.61985,-0.764137 -7.84267,-1.698076 -7.08339,-2.052694 -10.78617,-2.137502 -14.84938,-0.340124 -1.68841,0.746867 -4.93708,1.613288 -7.21918,1.925388 -2.2821,0.312101 -4.34709,0.765275 -4.58892,1.007063 -1.30257,1.302589 7.40773,10.181916 12.56992,12.813656 3.73902,1.90628 8.58463,1.61903 12.66337,-0.75086 z M 62.098752,42.243749 c 1.28523,-0.653176 2.45554,-1.565506 2.60059,-2.027406 0.38089,-1.212655 -6.55131,-7.908376 -10.08286,-9.738919 -2.5514,-1.322487 -4.08246,-1.564533 -10.13719,-1.602577 -6.9273,-0.0435 -7.1383,-2.57e-4 -7.35219,1.507582 -0.29014,2.045581 2.59324,6.872163 5.29219,8.858819 1.18159,0.869687 3.42745,2.161998 4.99083,2.871808 3.77543,1.714083 11.43875,1.782274 14.68863,0.130693 z m 36.38416,-0.407372 c 3.917788,-1.824435 7.423718,-5.516358 9.329338,-9.824371 2.01935,-4.565094 1.19838,-4.996342 -7.24171,-3.804044 -3.705618,0.523468 -8.101108,1.611915 -9.767888,2.418773 -3.29916,1.597122 -10.32431,8.192174 -10.32431,9.692307 0,1.553073 4.77393,3.042503 9.84884,3.072783 3.59811,0.02152 5.58188,-0.356876 8.15573,-1.555448 z M 79.139082,27.398342 c 7.84654,-3.788782 9.80658,-4.32149 20.01207,-5.438968 12.140048,-1.329304 18.145178,-2.582879 22.496618,-4.696156 3.39764,-1.650124 12.48969,-9.3434169 12.48969,-10.5682969 0,-0.367996 -24.79106,-0.619058 -61.130628,-0.619058 -35.02309,0 -61.130578,0.256824 -61.130578,0.601351 0,1.417768 9.111707,8.9548359 13.448623,11.1244979 3.827195,1.914685 6.069335,2.516382 11.771265,3.158914 15.74417,1.774189 18.6407,2.236241 23.3059,3.717701 2.6785,0.850585 6.06999,2.36192 7.53661,3.358528 3.50693,2.383012 5.13509,2.290192 11.20043,-0.638513 z"
     id="path27" /><path
     style="fill:#2fbabd;fill-opacity:1;stroke:#bfbfbf;stroke-width:0"
     d="m 177.10194,70.452031 c 0.18846,-0.491 4.57005,-10.45025 9.73692,-22.131568 l 9.39433,-21.238822 5.41166,0.194971 5.41164,0.194966 9.21959,20.037254 c 5.07077,11.020459 9.59466,20.877809 10.05311,21.905129 l 0.83354,1.8679 h -5.34745 -5.34738 l -1.69779,-4.24516 -1.69772,-4.24525 -11.44931,-0.1757 -11.44923,-0.17562 -1.70419,4.25105 -1.70417,4.25104 -5.00303,0.20125 c -3.91356,0.15743 -4.92849,0.007 -4.66052,-0.69144 z m 30.99361,-16.088407 c 0.63139,-0.399892 0.79094,-1.193537 0.48501,-2.412572 -0.50109,-1.996418 -5.51934,-13.856193 -6.11511,-14.451972 -0.91465,-0.914646 -2.59336,1.828296 -5.20157,8.49927 -2.65882,6.800463 -2.74742,7.249253 -1.59638,8.090911 1.3874,1.01447 10.92684,1.22504 12.42805,0.274363 z"
     id="path28" /><path
     style="fill:#2fbabd;fill-opacity:1;stroke:#bfbfbf;stroke-width:0"
     d="M 233.30485,49.206899 V 27.131962 h 4.75461 4.75461 v 17.636056 c 0,16.109433 0.10288,17.689173 1.18864,18.250173 0.65375,0.3378 5.73666,0.7767 11.29531,0.97531 11.12647,0.39765 11.26114,0.45429 11.27867,4.7412 l 0.0104,2.54716 h -16.64115 -16.64109 z"
     id="path29" /><path
     style="fill:#2fbabd;fill-opacity:1;stroke:#bfbfbf;stroke-width:0"
     d="M 273.37934,49.206899 V 27.131962 h 4.75461 4.75461 v 22.074937 22.074962 h -4.75461 -4.75461 z"
     id="path30" /><path
     style="fill:#2fbabd;fill-opacity:1;stroke:#bfbfbf;stroke-width:0"
     d="m 289.68088,70.714151 c 0,-0.6971 13.43701,-31.021249 17.0545,-38.487971 l 2.30347,-4.754602 5.22001,-0.197587 5.21991,-0.197586 1.32582,2.914504 c 7.69145,16.90812 18.45998,40.852052 18.45998,41.045902 0,0.1348 -1.96491,0.24505 -4.36646,0.24505 -4.99768,0 -5.47109,-0.32231 -7.80594,-5.31433 l -1.64438,-3.5157 H 314.0889 302.73001 l -1.69608,4.24524 -1.69609,4.24515 -4.82852,0.19953 c -2.65565,0.10976 -4.82844,-0.0828 -4.82844,-0.4276 z m 31.12318,-16.323672 c 0.71177,-0.451291 0.37856,-1.960279 -1.61006,-7.291312 -2.57699,-6.908629 -4.18144,-10.458002 -4.72728,-10.458002 -0.9114,0 -7.12593,14.482735 -7.12593,16.606813 0,0.524439 0.53494,1.093317 1.1887,1.264161 2.12317,0.554872 11.35189,0.463332 12.27457,-0.12166 z"
     id="path31" /><path
     style="fill:#2fbabd;fill-opacity:1;stroke:#bfbfbf;stroke-width:0"
     d="m 354.54722,71.549421 c -2.50124,-0.60017 -11.2073,-3.7977 -11.2073,-4.11617 0,-0.90596 2.95916,-7.01905 3.39773,-7.01905 0.28243,0 2.24946,0.79469 4.37116,1.76603 8.81344,4.03499 19.40031,2.51516 19.40031,-2.78494 0,-2.61781 -2.33915,-4.13212 -9.38515,-6.075794 -11.97511,-3.303402 -15.55129,-5.717484 -16.78396,-11.330039 -1.17601,-5.354319 3.84689,-12.292517 10.49859,-14.501851 7.52314,-2.498797 23.14202,-0.160412 23.14202,3.464715 0,1.399605 -2.04432,5.688843 -2.71133,5.688843 -0.28541,0 -1.60684,-0.454561 -2.93655,-1.010135 -2.85742,-1.193933 -11.13256,-2.07479 -13.62184,-1.450021 -2.2922,0.57531 -4.50332,3.000358 -4.50332,4.939073 0,2.35061 2.54004,4.226503 7.80023,5.760792 9.92945,2.896189 11.47457,3.54236 14.06321,5.881 3.43518,3.103491 4.12794,4.478717 4.05629,8.051537 -0.0688,3.42154 -1.26512,5.98914 -3.95394,8.48534 -3.68717,3.42298 -6.18618,4.24174 -13.4754,4.41511 -3.73578,0.089 -7.40363,0.0148 -8.15075,-0.16444 z"
     id="path32" /><path
     style="fill:#2fbabd;fill-opacity:1;stroke:#bfbfbf;stroke-width:0"
     d="m 388.60829,66.085141 c -0.24155,-2.85821 -0.43926,-12.791899 -0.43926,-22.074934 V 27.131962 l 4.58482,0.0029 4.58481,0.0029 8.38316,13.921303 c 4.61078,7.656717 8.61481,13.921266 8.89798,13.921266 0.28316,0 4.25206,-6.265854 8.81989,-13.92416 l 8.30505,-13.924137 h 4.36248 4.36247 v 22.074934 22.074953 h -4.7546 -4.75461 l -0.0795,-8.99976 c -0.0437,-4.94994 -0.27291,-10.982766 -0.50937,-13.406375 l -0.43003,-4.406558 -4.91235,8.533165 c -6.1596,10.699728 -8.6878,14.204098 -10.24752,14.204098 -1.76288,0 -4.16838,-2.8311 -8.65686,-10.1884 -4.95389,-8.120046 -7.07566,-10.95559 -7.84303,-10.481331 -0.33202,0.205195 -0.60367,5.856795 -0.60367,12.559111 v 12.18605 h -4.31532 -4.31532 z"
     id="path33" /><path
     style="fill:#2fbabd;fill-opacity:1;stroke:#bfbfbf;stroke-width:0"
     d="m 447.65284,70.685621 c -0.40651,-0.65784 11.42412,-27.845733 16.5736,-38.087477 l 2.74831,-5.466182 5.25643,0.02162 5.25647,0.02162 9.30318,20.864709 c 5.11672,11.47558 9.39588,21.32321 9.50919,21.8836 0.16483,0.81506 -0.75617,1.05823 -4.60479,1.21605 l -4.81084,0.19732 -1.88808,-4.44248 -1.88807,-4.44248 H 471.70969 460.3111 l -1.69585,4.24524 -1.69585,4.24515 -4.43066,0.19948 c -2.43691,0.10973 -4.61303,-0.0957 -4.8359,-0.45608 z m 28.73104,-16.129792 c 2.66372,-0.53275 2.68484,-1.43452 0.17465,-7.463003 -3.06581,-7.362809 -4.37561,-9.815469 -5.11091,-9.570359 -1.31031,0.436769 -6.81532,15.044318 -6.23722,16.550657 0.37452,0.976017 7.2268,1.272077 11.17348,0.482705 z"
     id="path34" /><path
     style="fill:#2fbabd;fill-opacity:1;stroke:#bfbfbf;stroke-width:0"
     d="M 503.63794,49.206899 V 27.131962 h 4.31865 4.31865 l 11.04852,13.41477 c 6.07662,7.378129 11.3161,13.516657 11.64321,13.641181 0.32795,0.12484 0.59478,-5.892902 0.59478,-13.414774 V 27.131962 h 4.69363 4.69362 l 0.3897,5.603636 c 0.21433,3.08201 0.4859,13.01573 0.60348,22.074903 l 0.21382,16.47136 -4.78776,-0.0475 -4.78768,-0.0476 -11.20729,-13.70695 -11.2073,-13.707012 -0.44222,3.735763 c -0.24322,2.054666 -0.47248,8.244129 -0.50939,13.754359 l -0.0673,10.01867 h -4.75461 -4.75461 z"
     id="path35" /></svg>
